<svg width="12" height="16" viewBox="0 0 12 16" fill="none" xmlns="http://www.w3.org/2000/svg">
<path fill-rule="evenodd" clip-rule="evenodd" d="M8.09806 3.9019C8.92649 5.33679 8.43487 7.17155 6.99999 7.99998C5.5651 8.82841 3.73034 8.33679 2.90191 6.9019C2.07348 5.46702 2.5651 3.63226 3.99999 2.80383C5.43487 1.9754 7.26963 2.46702 8.09806 3.9019ZM8.816 9.14541C10.5608 7.60309 11.0396 4.99679 9.83011 2.9019C8.4494 0.510437 5.39144 -0.308929 2.99999 1.07178C0.608534 2.45248 -0.210854 5.51044 1.16986 7.9019C2.37934 9.99679 4.87585 10.8853 7.08395 10.1454L9.63396 14.5622C9.91011 15.0405 10.5217 15.2043 11 14.9282C11.4783 14.652 11.6422 14.0405 11.366 13.5622L8.816 9.14541Z" fill="#33333F"/>
</svg>
